<?xml version="1.0" standalone="no"?>
<!DOCTYPE svg PUBLIC "-//W3C//DTD SVG 1.1//EN" "http://www.w3.org/Graphics/SVG/1.1/DTD/svg11.dtd">
<svg xmlns="http://www.w3.org/2000/svg">
<metadata>Generated by Fontastic.me</metadata>
<defs>
<font id="siartes" horiz-adv-x="512">
<font-face font-family="siartes" units-per-em="512" ascent="480" descent="-32"/>
<missing-glyph horiz-adv-x="512" />

<glyph glyph-name="ios-body-outline" unicode="&#97;" d="M256 464c18 0 32-14 32-32 0-18-14-32-32-32-18 0-32 14-32 32 0 18 14 32 32 32m0 16c-27 0-48-21-48-48 0-26 21-48 48-48 27 0 48 22 48 48 0 27-21 48-48 48z m168-112l-336 0c-13 0-24-11-24-24 0-13 11-24 24-24l100 0c6 0 14-4 18-15 4-12 2-33-1-51l-4-21c0-1 0-1 0-1l-32-172c-3-13 6-25 19-28 2 0 3 0 5 0 11 0 20 8 23 20l20 120 0 0c0 0 7 31 19 31l2 0c12 0 17-31 17-31l0 0 21-120c3-12 13-20 24-20 2 0 3 0 5 0 13 3 21 15 19 28l-32 172c0 0 0 0 0 0 0 1 0 1 0 1l-4 21c-3 18-5 39-1 51 4 11 13 15 18 15l100 0c13 0 24 11 24 24 0 13-11 24-24 24z m-336-32c-4 0-8 4-8 8 0 4 4 8 8 8l336 0c4 0 8-4 8-8 0-4-4-8-8-8l-101 0c-16 0-28-15-31-24-5-12-5-32-1-61l0 0 0 0 3-19 1-3 32-172c1-3 0-5-1-6-1-1-2-3-5-3-1 0-1 0-2 0-4 0-7 2-8 6l-21 120 0 0c0 2-2 10-5 19-2 6-5 11-8 15-7 9-15 11-20 11l-2 0c-5 0-13-2-20-11-3-4-6-9-8-15-4-9-6-17-6-18l0-1-21-120c-1-4-4-6-7-6-1 0-1 0-2 0-3 0-4 2-5 3-1 1-2 3-1 6l32 172 0 0 0 1 4 21 0 0 0 0c5 29 4 49 0 61-4 9-14 24-32 24"/>
<glyph glyph-name="actores" unicode="&#98;" d="M393 148c-10 56-33 101-92 121 26 14 43 42 43 73 0 47-37 84-83 84-47 0-84-37-84-84 0-30 16-56 39-71-1-2-7-5-14-10-3-3-7-5-10-7-15-11-30-22-38-41-9-18-23-48-25-72-3-33 13-53 39-54 64-2 128-1 192 0 9 0 27 13 31 25 6 13 5 23 2 36z m-234 148c0 30-24 55-55 55-32 0-56-24-56-55 0-20 10-38 26-48-3-1-7-4-10-5-22-7-35-25-43-44-7-13-9-31-9-48 0-15 7-22 22-24 22-2 43 0 65-1 5 0 7 2 7 7 0 3 0 8 1 11 1 6 8 35 9 40 4 15 11 29 19 42 8 14 8 15-2 21 15 10 26 28 26 49z m345-101c-9 24-26 42-50 52 17 9 30 28 30 49 0 30-24 55-56 55-8 0-15-1-22-4-9-4-20-10-28-20-8-10-9-22-9-34 0-21 12-32 28-44-3-1-4-2-5-2-8-4-14-6-5-15 4-4 6-10 9-14 11-27 22-55 23-84 0-4 0-7 5-7 23 1 46-2 69 1 9 1 14 7 17 14 7 19 1 36-6 53z"/>
<glyph glyph-name="comisiones" unicode="&#99;" d="M151 299c5 1 12-4 18-8 8-7 18-12 26-19 2-1 3 0 6 0 21 14 43 29 64 43 4 2 7 4 11 6 2 1 3 2 1 4-18 22-37 46-56 69-14 18-29 37-44 55-5 7-2 16 6 20 15 6 31 9 48 7 5-1 9-2 13-5 29-20 59-40 88-60 14-10 27-19 41-29 3-2 5-1 6 0 11 7 22 14 34 19 11 5 23 10 35 11 9 2 18 3 28 1 7-1 13-2 19-6 10-7 11-18 8-29-5-18-16-31-28-42-17-11-33-21-50-30-4-2-5-3-4-8 1-25 3-48 5-73 2-28 5-55 6-82 1-10-2-18-7-25-6-11-14-20-25-27-8-5-17-3-20 6-8 20-15 40-23 60-12 30-23 59-35 88-1 1 0 3-3 2-26-14-54-28-80-41-3-1-3-3-3-5 1-11 1-21 3-31 2-12-2-21-9-29-6-9-14-17-22-23-8-6-18-3-21 6-5 19-11 38-16 56-1 3-1 5-5 5-7 1-14 4-19 11-5 8-5 17-2 25 1 3 0 4-1 6-12 13-26 27-39 42-8 8-6 17 5 22 11 4 24 7 41 8z m247-176c3 4 6 9 9 13 1 1 0 16 0 18-2 23-4 46-6 70-1 12-1 24-2 36-1 16-3 32-4 48 0 5 2 9 5 12 9 5 18 10 26 15 16 8 29 18 40 31 5 5 9 12 11 19 1 3 0 4-2 4-6 1-11 2-17 1-13-1-26-5-37-11-14-7-26-15-39-22-6-4-11-4-16 0-23 16-46 32-69 47-20 14-39 27-59 40-9 7-18 9-28 8-3-1-4-1-2-4 16-19 32-39 48-59 16-20 33-40 49-61 7-7 5-15-3-20-9-4-17-10-25-15-24-16-48-32-71-47-6-4-11-4-17 0-10 7-20 14-30 21-6 5-13 8-21 5-1 0-2 0-3 0 0-1 1-2 2-2 12-13 24-25 35-38 4-4 4-12 0-15-2-2-6-5-4-8 2-2 6-1 8 0 7 1 13-2 14-8 5-16 10-33 15-49 0-1 1-2 2-1 2 4 8 8 7 14-2 15-3 29-4 43-1 8 2 12 9 16 8 4 15 8 23 13 5 2 23 12 25 13 18 9 37 18 54 28 7 4 15 1 18-6 1-3 3-6 4-9 5-12 10-25 15-39 7-16 12-31 19-47 3-12 19-51 21-54z m-355 173c-6 0-11 4-13 9-2 5 0 10 5 14 10 6 21 12 31 18 15 10 32 19 47 28 10 5 19 11 28 15 9 6 17 1 20-8 1-4-2-10-6-13-21-12-40-23-60-34-15-10-31-19-47-28-1-1-4-1-5-1z m-24-190c-6 0-11 4-13 9-1 5 0 10 6 13 12 7 24 15 36 21 18 10 35 20 53 30 6 4 12 8 20 11 6 3 13 1 16-4 4-7 1-14-4-18-36-21-72-41-107-62-3 0-5 0-7 0z m160-55c0 3 2 7 6 9 14 9 29 18 44 26 19 11 38 22 56 33 2 1 5 3 8 4 6 2 12 0 16-6 3-5 1-13-5-16-16-10-32-20-49-29-19-11-38-22-57-33-4-2-8-2-12 0-5 3-7 7-7 12z"/>
<glyph glyph-name="concertacion-01-01" unicode="&#100;" d="M498 263c3 21-6 51-6 53 0 1 0 2 0 3-2 7-3 13-6 17-13 40-35 75-64 104-1 0-2 2-2 2-6 5-10 9-15 13-41 33-92 53-148 53-127 0-230-102-241-231-6-28 11-101 11-102 5-14 10-27 17-41 0 0 2-5 4-6 8-15 17-28 28-41 0 0 4-6 7-7 6-7 13-13 20-19 0 0 17-15 22-17 38-25 83-40 131-40 87 0 164 48 206 120l1 1c3 2 5 7 7 11 1 3 2 5 3 6l1 2c3 8 6 16 8 24 4 11 7 22 10 33 0 0 0 1 0 2l2 2c3 16 5 33 5 50-1 3-1 6-1 8z m-17-60c-3-11-6-22-9-31-3-9-8-18-12-27l-3 10c-3 9-8 18-12 26-5 12-11 23-13 34-1 7-1 8 4 14l2 3c1 1 1 2 3 4 5 7 10 12 13 16 4-7 7-14 11-21 5-9 10-19 16-28z m-235-143c-6-5-15-9-23-13-4-1-7-3-10-4-18-9-37-4-47-1-4 1-9 3-13 4-7 3-14 5-22 8 41 10 74 33 106 60 10 8 32 29 32 29 4 3 7 7 10 10 10 8 22 28 35 50 8 14 17 31 18 32 2 4 4 7 5 10 27 47 36 89 38 125 0 0 0 0 0 1l0 5c0 34-7 64-14 90 2 0 4-1 6-2 3-1 6-3 7-4 10-6 17-11 23-15 5-5 10-10 16-14 7-12 13-64 9-97-8-62-55-127-61-135-8-13-36-56-45-66 0 0 0 0-1 0l0-1c0 0-1-1-1-1-7-8-37-47-68-71z m-88 75c-4 2-13 2-20 1-7 2-13 5-19 8l-53 26c-5 2-8 3-12 5-6 2-11 4-16 8-5 15-8 31-10 48 5-3 9-8 12-11 6-5 12-10 17-13 21-10 44-15 66-19 2-1 5-1 6-2 2-1 3-3 4-5l30-45c-2 0-3 0-5-1z m-86 19l42-20c0-1 2-1 2-1-5-2-9-2-16-2l-1 0c-11-1-21-1-29 1 0 4 0 7 1 11 0 3 1 7 1 11z m275 322c1-3 1-6 2-8 3-9 5-19 7-29-2 3-4 7-7 12l-6 9c-5 9-10 18-20 24-1 1-2 1-3 2 9-2 19-6 27-10z m-13-213c-3 21-15 39-32 51 18-2 34-4 50-8-5-14-11-28-18-43z m-73-111c-11 12-21 23-31 35 10-4 20-7 31-7 10 0 20 3 29 6-7-10-14-19-18-24-4-3-7-7-11-10z m44 59c-12-12-27-19-44-19-34 0-62 28-62 62 0 33 28 61 62 61 34 0 61-28 61-61 0-6 0-11-2-15-4-8-10-18-15-28z m-117 34c-13 21-23 41-31 62 20 4 41 7 65 9-20-14-34-37-34-62-1-3-1-6 0-9z m92 144c-2 0-4 1-5 1-2 2-5 3-8 5l-1 0c-11 7-29 16-44 22 6 11 17 26 21 32 3-2 5-4 6-4 1-2 3-3 4-6 8-10 19-23 31-24 6-12 25-23 29-29-1 0-16 3-18 3-5 0-9 0-15 0z m-13 66c4-7 9-15 12-23l1-4c-6 4-13 13-17 18-2 3-4 5-5 6-2 2-7 6-10 9 4 3 7 6 10 10 3-5 6-10 9-16z m91-73c-3-2-11 1-16 3-3 1-27 18-34 25-5 5-9 9-13 13-3 14-11 26-19 38-3 6-6 11-8 15 1 1 1 1 1 1 5 4 7 5 14 4 14 0 25-2 34-8 6-4 11-12 16-20l6-10c9-15 11-18 21-41 2-16-1-20-2-20z m-118 87c-3-3-6-5-7-7-4-4-16-28-23-41-9-19-14-29-16-34-14 1-31-3-42-8l-1 0c-2 0-4-1-5-1-2 0-3 3-3 5 0 4 2 7 3 12l16 36c8 19 16 35 31 44 9 6 21 8 32 10 2 0 5 1 8 2 9 2 16 3 19 3 2 0 3 0 4 0 0-5-12-17-16-21z m-89-33l-15-35c-1 10-2 21 1 31 3 16 15 30 30 37l3 1c-9-10-14-23-19-34z m-26-2c-3-12-2-24-2-36 0-4 0-7 0-11 0-3 0-7 0-11-13-3-24-6-34-10-1 20 0 35 4 47 6 18 22 35 42 45-4-7-8-15-10-24z m91-28c11-4 25-11 36-17-15 0-30-1-45-3 2 6 5 12 9 20z m68 88c-8 1-12-1-17-4 0 1 0 2 0 2-1 1-1 3-2 4 7 0 13-1 20-2 0 0-1 0-1 0z m-100-11l-3-1c2 1 3 1 4 2-1 0-1-1-1-1z m-106-118l0-1c0-1 0-3 0-3-14-4-26-9-34-13 9 22 21 44 36 62-3-17-3-34-2-45z m-41-46c1 4 2 9 3 13 4 4 18 10 39 16l1 1c45 14 122 30 199 28 2 0 4-1 6-1 3 0 7 0 10 0 22-1 45-4 67-9-2-16-3-34-8-50-32 8-71 12-110 11-37 0-68-4-95-11l-1 0c-19-4-37-10-50-18-23-10-47-24-71-40 0 6 0 11 0 17 3 14 7 30 10 43z m11-89c-6 6-13 12-20 15 3 2 7 4 10 6 3-8 6-14 10-21z m77-29c-11 1-21 4-31 6-10 4-28 16-34 26-5 7-8 15-11 26 11 6 31 19 41 24 3-4 8-26 11-28 6-19 15-38 24-54z m-12 57c0 0-6 21-9 31 0 0 1 0 1 0 13 6 26 11 40 15 21-55 57-108 107-159-7-8-15-15-23-22-9-6-18-12-28-17-6 10-14 20-20 30-26 37-53 77-68 122z m362 73c6-22 10-45 11-68-1-5-1-7-3-8-1-1-3-1-9 4-16 13-35 25-52 34 6 17 11 35 13 53 6-3 25-10 29-12 6-1 9-2 11-3z m-61-241c-1-4-3-8-6-11-1-1-2-2-4-3l-8-1c-3 0-6 0-8 0-4 1-7 3-11 4 8 35 6 78-5 113 8 12 16 24 23 37 25-40 33-95 19-139z m-65-6c-16 5-32 11-47 17 6 6 12 13 18 19 2 0 3 0 5 0 17 0 29 3 45 7 0-17-2-33-6-48-5 2-10 4-15 5z m14 96c3-13 6-26 6-40l-2-1c-13-3-23-6-35-6 7 9 14 19 20 30 4 6 8 11 11 17z m-84-108c2 2 11 10 17 20 15-7 33-14 49-19 9-3 19-6 29-8l-13-7c-16-8-34-16-52-19-11-2-33-1-42 7-3 3-4 11-4 11 0 0 15 13 16 15z m122 171c6 12 12 25 16 39 11-6 20-12 30-18-2-4-12-17-16-21-2-3-3-4-3-4l-2-3c-6-8-9-13-6-24 2-12 8-24 14-36 5-9 8-17 11-24l7-21c-7-12-15-23-24-33 12 46 1 103-27 145z m74-7c-2 4-4 8-6 12 5-4 10-6 14-6 1 0 2 0 3 1-1-7-1-15-2-23-3 6-6 11-9 16z m-6 110c-1 0-2 0-3 0-3 1-6 2-8 3-7 3-14 6-22 9 0 16-2 37-5 53 17-19 29-41 38-65z m-420-182c4-1 8-3 11-5l1 0c-1-4-1-10-2-15-1-3-1-5-1-8 0 0-1 0-1 1-5 9-9 19-14 30 2-1 4-3 6-3z m37-46c4 0 9 0 13 1l1 0c11 0 17 1 28 4l2 0c3 1 5 1 7 2 2-1 4-2 6-2 2 0 5 0 8 0 7 0 15 2 21 6 6-9 12-19 19-28-10-5-20-10-30-12-24-6-48-2-71 3-8 9-16 19-23 29 6-2 13-3 19-3z m50-45c6 0 13 0 19 1-12-5-23-8-36-11-5 4-9 8-14 13 9-2 20-3 31-3z m52-47c1 0 2 0 2 0 10 0 20 2 28 6 3 1 6 3 10 4 8 4 17 7 24 13 1-5 3-9 7-12 10-9 25-11 39-11 4 0 9 1 12 1 20 3 39 12 56 20l21 10c-38-27-82-43-131-43-23 1-46 5-68 12z"/>
<glyph glyph-name="ficha" unicode="&#101;" d="M386 287c-24 0-47 0-71 0-9 0-14 3-13 10 0 7 5 10 13 10 48 0 95 0 142 0 10 0 14-3 14-11 0-6-7-10-14-10-24 1-47 1-71 1z m-25-40c-15 0-29 0-44 0-2 0-4 0-5 0-7 1-10 5-10 11 0 6 4 9 10 9 33 0 65 0 98 0 7 0 11-4 11-10 0-7-5-11-11-11-17 1-33 1-49 1z m-5-79c-13 0-28 0-41 0-8 0-14 4-14 10 0 6 6 11 14 11 28 0 55 0 82 0 8 0 13-5 14-10 0-6-5-10-14-10-14-1-27-1-41-1z m23 60c26 0 53 0 79 0 5 0 11-1 13-7 3-7-1-14-9-14-30 0-59 0-89 0-8 0-11 4-11 11 0 6 4 10 11 10 1 0 3 0 6 0z m-57-21c-3 0-7 0-10 0-7 1-9 5-9 10 0 6 2 10 9 11 7 1 15 0 22 0 6 0 9-5 9-11 0-6-4-10-10-10-4 0-7 0-11 0z m127-39c-3 0-7 0-10 0-6 1-9 4-9 10 0 6 3 10 10 10 7 1 14 1 21 0 6 0 10-4 10-11 0-6-4-9-10-10-5 1-8 1-12 1z m7 99c2 0 5 0 7 0 5 0 8-4 8-9 0-6-2-9-8-10-4-1-9-1-14 0-6 1-9 4-9 11 1 6 5 9 11 9 1-1 3-1 5-1z m-278 60c-49 1-90-39-90-89-1-49 40-90 89-90 49 0 90 39 90 89 0 53-43 90-89 90z m-1-63c10 0 19-9 19-19 0-9-9-18-19-18-10 0-18 9-18 18 0 10 9 19 18 19z m26-90c-9-3-17-5-26-5-9 0-18 2-27 6-4 2-5 4-4 9 4 13 16 23 31 23 14 0 26-8 31-21 2-7 1-10-5-12z m286-55c-39-2-166-1-169-1-82 0-150 0-232 0-1-2-35 1-33 28 0 40 1 176 1 178-4 11 5 22 16 22 137 0 275 0 412 0 6 0 8-2 8-8 0-41 0-83 0-124 0-2 0-5 0-7 1-5 3-9 10-8 6 0 9 3 10 9 0 3 0 7 0 9 0 45 0 90 0 134 0 13-3 15-14 15-2 0-3 0-5 0-54 0-109 0-164 0-3 0-7-1-8 5-1 22-14 33-36 33-81 0-162 0-244 0-22 0-36-14-36-36 0-79 0-160 0-239 0-27 36-27 36-27l453 0c1 0 8 7 9 7-6 5-10 4-14 10z m-455 247c-9 0-11 4-7 12 4 6 9 7 15 7 37 0 72 0 108 0 45 0 91 0 136 0 10 0 15-5 16-12 1-5 0-8-5-8-14 0-28 0-41 0-30 0-61 0-91 0-44 1-87 1-131 1z m460-264c-2 0-5 3-5 6l0 36c0 3 3 5 5 5l9 0c3 0 5-2 5-5l0-27c0-8-6-15-14-15z"/>
<glyph glyph-name="ofertas" unicode="&#102;" d="M166 154c21-27 37-57 56-87 3-5 7-9 10-14 5-9 5-14-4-18-10-5-21-17-29-15-8 3-13 18-18 27-19 30-37 59-56 89-4 5-6 8-12 8-52 8-85 39-101 88-8 28-5 58 8 85 16 33 43 55 78 67 8 1 17 4 23 4 25 3 43 16 62 30 34 25 68 50 101 74 12 9 31 2 35-12 4-18 8-35 12-53 7-31 15-61 22-92 5-24 11-47 16-71 7-30 14-61 22-89 2-7 2-15 4-23 0-13-12-24-26-21-23 2-44 6-67 10-28 6-58 10-86 15-13 3-53 2-50-2z m174 36c-5 17-9 34-13 51-8 37-16 72-25 108-6 24-11 50-18 75-2 13-6 9-12 4-23-17-47-36-70-53-13-11-15-14-9-31 9-30 13-60 21-89 4-17 8-33 12-49 2-5 4-5 8-7 22-4 44-6 64-10 12-3 24-4 36-6 4-1 7 2 6 7z m-207-1c19 1 39 9 62 13 6 1 7 5 6 11-4 9-6 20-8 30-8 32-15 64-22 98-1 7-5 11-13 8-15-4-31-8-46-11-38-8-65-54-53-94 10-34 41-54 74-55z m355 153c0-5-3-7-6-7-24-5-49-12-74-17-12-3-8 9-11 15-2 4 2 8 7 9 23 6 46 10 68 16 10 4 16-1 16-16z m-66-89c11-2 21-6 33-10 14-5 27-9 42-13 4-1 7-2 4-8-1-2-2-6-2-10-2-5-5-6-9-5-24 9-49 15-74 23-2 2-9 2-5 6 4 5-1 16 11 17z m27 212c-3-4-6-6-7-8-18-16-36-34-54-50-7-7-9-1-15 3-7 6-8 10 0 17 18 15 33 31 50 46 3 3 5 7 11 4 5-3 9-8 15-12z"/>
<glyph glyph-name="festivales" unicode="&#103;" d="M253 36c-5 107 27 203 109 278 13-12 12-51 2-60-61-57-88-132-106-211-1-2-3-4-5-7z m-62 307c35-97 44-191 39-292-2 5-4 11-5 17-15 81-79 249-79 249l8 31c0 0 23 7 37-5z m188-227c-37-27-69-50-99-72-3 33 52 91 85 86 7-1 12-12 14-14z m-209 50c14-41 28-82 42-123-3-1-5-2-7-3-20 34-47 65-66 99-2 5 2 19 6 28 4-1 20-1 25-1z m19 205l-44-8-19-40-21 39-44 6 31 32-9 43 40-19 39 21-6-44z m118 13l-19 22-29-3 15 25-12 27 28-7 22 20 2-29 26-15-27-11z m145-116l-27 22-32-10 12 32-20 29 35-2 21 27 9-33 32-12-29-18z m-17-178l-22 17-28-8 11 27-16 23 28-1 17 22 7-27 27-10-24-15z m-272 91l-24-5-8-23-13 21-24 1 16 18-6 23 22-9 20 13-2-24z m90 199l29 11 15-25c0 0-24-29-31-49-8-20-24-68-24-68l-7 0c0 0 7 112 18 131z"/>
<glyph glyph-name="urbano" unicode="&#104;" d="M133 333l39 0 0-198-39 0z m88 0l39 0 0-198-39 0z m84 0l39 0 0-198-39 0z m88 0l39 0 0-198-39 0z m55 63l-172 80-172-80-21 0 0-45 391 0 0 45z m26-323l0 20-15 0 0 22-365 0 0-22-17 0 0-20-12 0 0-20 428 0 0 20z"/>
<glyph glyph-name="calendar" unicode="&#105;" d="M142 247l-50 0 0 50 50 0z m-39 11l28 0 0 29-28 0z m112-11l-51 0 0 50 51 0z m-40 11l29 0 0 29-29 0z m112-11l-50 0 0 50 50 0z m-39 11l28 0 0 29-28 0z m112-11l-50 0 0 50 50 0z m-39 11l28 0 0 29-28 0z m111-11l-50 0 0 50 50 0z m-39 11l28 0 0 29-28 0z m-251-11l-50 0 0 50 50 0z m-39 11l28 0 0 29-28 0z m112-11l-51 0 0 50 51 0z m-40 11l29 0 0 29-29 0z m112-11l-50 0 0 50 50 0z m-39 11l28 0 0 29-28 0z m112-11l-50 0 0 50 50 0z m-39 11l28 0 0 29-28 0z m111-11l-50 0 0 50 50 0z m-39 11l28 0 0 29-28 0z m-251-82l-50 0 0 50 50 0z m-39 11l28 0 0 29-28 0z m112-11l-51 0 0 50 51 0z m-40 11l29 0 0 29-29 0z m112-11l-50 0 0 50 50 0z m-39 11l28 0 0 29-28 0z m112-11l-50 0 0 50 50 0z m-39 11l28 0 0 29-28 0z m111-11l-50 0 0 50 50 0z m-39 11l28 0 0 29-28 0z m-251-11l-50 0 0 50 50 0z m-39 11l28 0 0 29-28 0z m112-11l-51 0 0 50 51 0z m-40 11l29 0 0 29-29 0z m112-11l-50 0 0 50 50 0z m-39 11l28 0 0 29-28 0z m112-11l-50 0 0 50 50 0z m-39 11l28 0 0 29-28 0z m111-11l-50 0 0 50 50 0z m-39 11l28 0 0 29-28 0z m-251 132l-50 0 0 50 50 0z m-39 11l28 0 0 28-28 0z m112-11l-51 0 0 50 51 0z m-40 11l29 0 0 28-29 0z m112-11l-50 0 0 50 50 0z m-39 11l28 0 0 28-28 0z m112-11l-50 0 0 50 50 0z m-39 11l28 0 0 28-28 0z m111-11l-50 0 0 50 50 0z m-39 11l28 0 0 28-28 0z m-251-11l-50 0 0 50 50 0z m-39 11l28 0 0 28-28 0z m112-154l-51 0 0 50 51 0z m-40 11l29 0 0 29-29 0z m112 132l-50 0 0 50 50 0z m-39 11l28 0 0 28-28 0z m112-11l-50 0 0 50 50 0z m-39 11l28 0 0 28-28 0z m111-11l-50 0 0 50 50 0z m-39 11l28 0 0 28-28 0z m40 143l-15 0-1 12-16 0 0-12-42 0 0 12-17 0 0-12-47 0 0 12-17 0 1-12-43 0 0 12-17 0 1-12-47 0-1 12-16 0 0-12-40 0 0 12-17 0 0-12-20 0c-21 0-38-17-38-38l0-345c0-21 17-38 38-38l303 0c1-1 3-2 4-2 0 0 1 0 1 0 1 0 3 1 5 2l13 0 2 4c3 5 6 9 10 14 3 3 6 7 9 11 3 4 5 7 6 10 3 6 6 10 10 15 8 11 17 21 27 32l2 2 0 295c0 21-17 38-38 38z m-354-17l20 0 1-24 17 1-1 23 40 0 1-24 17 1-1 23 47 0 1-24 16 1 0 23 42 0 0-24 17 1-1 23 47 0 1-24 17 1-1 23 42 0 1-24 16 1 0 23 15 0c11 0 21-9 21-21l0-21-396 0 0 21c0 12 10 21 21 21z m352-332c-10-14-30-42-41-53-1 11-1 31 0 52 1 4 1 5 1 5 1 1 3 1 4 1 5 1 11 1 17 1 6 0 13 0 19 0 1 0 2 0 3 0-1-3-2-4-3-6z m22 22l-2 0c-6 0-13 0-19 0-13 1-26 1-39 0-3-1-8-1-13-5-6-5-6-13-6-17-1-15-3-39 0-55l-295 0c-12 0-21 9-21 21l0 307 396 0 0-250c0 0-1-1-1-1z m-302-17l0 17 101-1 0-17z m126 15l81 0 0-17-81 0z m-41-38l122 0 0-17-122 0z m-81 0l62 0 0-17-62 0z"/>
<glyph glyph-name="donaciones" unicode="&#106;" d="M194 237c49 0 88 40 88 89 0 49-39 88-88 88-49 0-89-39-89-88 0-49 40-89 89-89z m0 155c36 0 66-30 66-66 0-37-30-66-66-66-37 0-66 29-66 66 0 36 29 66 66 66z m130-291c-10 15-21 31-29 47-14 28-20 53-17 76 2 2 5 2 8 2l18-4c14-3 28 3 35 16 8 12 6 28-4 38l-12 14c-2 3-3 6-2 9 0 4 2 6 5 8l16 8c13 7 20 21 17 36-2 14-13 25-28 27l-18 2c-3 1-6 3-8 6-1 3-2 6 0 9l7 17c5 14 1 29-10 38-11 10-27 11-39 3l-15-10c-3-1-7-2-10-1-3 2-6 4-7 7l-5 18c-5 14-17 23-32 23-15 0-27-9-32-23l-5-18c-1-3-4-5-7-7-3-1-7 0-9 1l-16 10c-12 8-28 7-39-2-11-10-15-25-9-39l6-16c2-4 1-7 0-10-2-3-5-5-8-5l-18-3c-15-2-26-13-28-27-3-14 4-28 17-35l16-9c3-1 5-4 6-7 0-4-1-7-3-10l-12-13c-10-11-12-27-4-39 7-13 21-19 35-16l6 1c1-54-17-106-50-149l-29-37 93 43 28-63 11 8c11 8 19 20 25 31 6 9 11 19 15 29 13-23 28-44 44-65l8-10 9 9c10 11 12 24 14 36 0 5 1 11 3 15 23-9 47-14 72-16l23-3-12 20c-7 10-13 20-20 30z m-244 143c-8-2-11 3-12 5-1 1-4 7 1 13l12 13c7 8 10 18 9 28-2 11-9 19-18 24l-16 8c-6 4-6 10-5 12 0 2 2 8 9 9l18 2c10 2 19 8 24 17 5 9 6 19 2 29l-7 17c-3 7 2 11 3 12 2 2 7 5 13 1l16-10c8-5 19-6 29-3 9 4 17 12 20 21l6 18c2 7 8 7 10 7 2 0 8 0 10-7l6-18c3-10 10-17 20-21 10-3 20-2 29 3l15 10c7 4 12 0 13-1 2-1 6-5 3-12l-7-17c-3-10-3-20 2-29 6-9 15-15 25-17l18-2c7-1 9-7 9-9 0-2 1-8-6-12l-16-8c-9-5-15-14-17-24-2-10 1-20 8-28l12-13c5-6 3-11 2-13-1-2-5-7-12-5l-18 4c-8 1-17 0-24-5-4 0-8-3-9-8-5-6-8-14-7-21l0-19c1-7-5-10-7-10-2-1-7-3-12 3l-11 14c-7 9-16 13-27 13-10 0-20-4-26-13l-11-14c-5-6-11-4-13-3-1 0-7 3-7 10l1 19c0 10-4 20-12 26-8 7-18 10-28 8z m69-177c-3-5-6-9-9-13l-25 56-36-16c22 39 33 84 33 128 2-2 3-4 3-7l-1-18c0-15 8-28 22-33 14-5 29-1 38 11l11 14c1 1 1 1 1 1 1-1 1-2 2-2-4-43-18-84-39-121z m116 26c-2 1-7 2-13 1-5-2-9-5-11-11-3-8-4-16-6-24 0-4-1-7-2-10-14 20-28 41-39 64 8 22 13 44 16 67l4-5c6-8 16-13 26-13 4 0 8 1 12 2 3 2 7 4 10 6 3-10 8-21 13-32 9-17 20-33 31-49 2-3 4-6 6-9-16 2-32 7-47 13z"/>
<glyph glyph-name="ies" unicode="&#107;" d="M196 350l101 0 0-20-101 0z m0-55l101 2 0-21-101-2z m-7-53l108 0 0-20-108 0z m-52 81c-3 0-5 1-6 2-3 2-4 4-6 5-1 1-2 3-4 4l6 7c2-2 4-3 5-5 2-1 3-2 4-3 0 0 1-1 1-1 0 1 0 1 0 1l22 27 7-6-21-27c-1-1-3-4-7-4 0 0 0 0-1 0z m4-56c-3 0-5 2-6 3-2 1-3 3-4 4-3 2-4 3-9 4l2 10c7-2 10-4 13-7 1-1 2-2 3-3 4 10 11 20 19 27l6-7c-7-7-13-15-17-25 0-1-1-4-4-5-1-1-2-1-3-1z m-6-56c-2 0-4 1-6 3l-11 13 7 6 10-10c3 7 9 13 14 18l9 10 7-7-9-10c-5-5-11-11-14-18 0-1-2-4-5-5-1 0-1 0-2 0z m15-27l21 0 0-73-21 0z m45-28l23 0 0-45-23 0z m45-22l23 0 0-23-23 0z m138 309l-57 0c0 20-1 21-3 23l-3 3-4 0c-5 0-18 0-31 0-9 0-18 1-25 1-5 15-19 27-36 29-10 1-20-2-29-10-6-5-11-12-13-20-18 0-57-1-58-1l-9-1 0-24-55 0c-12 0-21-9-21-21l0-380c0-12 9-21 21-21l323 0c11 0 21 9 21 21l0 380c0 12-9 21-21 21z m-49-66l0-286-222 0 0 286z m-200 73c16 0 49 1 56 1l8 1 0 8c1 5 4 11 9 15 5 4 10 6 15 6 11-2 21-10 22-21l0-9 9 0c5 0 18 0 31 0 9 0 17 0 24 0 0-11-1-32-1-52l-173 0z m250-408c0 0-1-1-1-1l-323 0c0 0-1 0-1 1l0 380c0 0 0 1 1 1l55 0 0-25-24 0 0-327 263 0 0 327-29 0c0 10 1 18 1 25l57 0c0 0 1 0 1-1z"/>
<glyph glyph-name="notificacion" unicode="&#108;" d="M450 272c-6 12-14 21-23 25-9 7-18 9-25 9-6 0-14 2-25 7-10 6-19 14-25 24-44 65-80 107-105 126-28 19-64 25-108 18-12-4-23-2-31 4-9 5-18 6-25 2-8-5-12-12-11-23 1-9-3-19-11-28-31-35-45-71-43-109 4-38 20-88 50-152 8-17 8-37 0-59-8-22-7-41 3-58 10-19 39-28 86-26 48 4 98 20 150 48 51 29 90 63 118 103 27 38 36 68 25 89z m-355-115c-1 1-1 2-1 3-2 16-8 33-14 48-6 14-11 29-16 44-8 26-16 49-20 86-6 51 29 78 36 86 14 14 1 34 16 40 16 7 19-14 43-10 11 2 40 16 88-10 25-13 44-40 60-62 9-13 18-25 26-38 17-25 31-34 36-35 1-1 2-1 3-2 0 0 0-1 0-1 0-1-1-2-1-2-1-1-2-1-4-2-5-1-35-8-44-11-9-3-18-6-27-9-23-9-45-20-66-33-24-15-48-32-70-51-8-8-16-15-24-23-5-5-11-14-17-18-1-1-3-1-4 0z m314 68c-8-14-23-32-44-55-20-22-45-41-75-58-27-15-57-26-88-34-32-7-56-10-70-9-16 0-26 3-28 7-3 6-2 15 4 29 6 13 20 30 42 51 21 21 48 41 82 61 34 18 65 32 94 40 25 7 46 11 63 10 14-2 24-6 29-13 2-5-1-14-9-29z m-148-16c-2 0-3 0-5 0-2-1-3-1-4-2-8-3-14-7-21-11-16-11-33-23-49-36-15-12-32-27-42-43 8-9 26-10 37-9 16 1 29 8 42 15 19 9 33 22 42 40 4 7 7 16 6 25 0 5-2 19-6 21z"/>
<glyph glyph-name="dash" unicode="&#109;" d="M308 251c0-2 8-7 8-7l-86-86c-2 1-4 1-6 1-13 0-24-11-24-24 0-13 11-24 24-24 13 0 24 11 24 24 0 1 0 3 0 4l89 89c0 0 6-8 10-8 15 3 29 48 17 59-12 10-55-11-56-28z m197-37c0 0 0 0 0 0-2 15-5 29-10 44-37 115-155 192-280 169-102-19-214-102-209-255 2-48 26-44 26-8 0 20 1 34 2 45 1 2 1 3 2 5 14-3 27-5 40-8 2-1 3-1 5-1 8-2 16 4 17 13 2 8-4 16-12 18-1 0-2 0-2 0-14 3-28 6-44 10 7 25 14 43 28 57 13-9 23-16 34-25 0 0 0 1 1 1 2-2 5-4 8-4 8-2 16 4 17 13 1 7-2 14-9 16-10 9-20 16-32 25 17 19 30 31 52 43 7-13 13-23 19-34 9-14 23-13 29-7 5 6-1 19-1 19-6 12-12 24-18 36 24 9 46 16 75 17l0-33c0-1 0-1-1-1-1-9 5-17 13-18 8-1 16 5 18 13 0 1 0 2 0 2l0 0 0 37c24-2 47-4 75-19-6-12-12-22-17-34 0 0 0 0 0 0-1-2-2-4-3-7-1-8 5-15 14-16 8-2 16 4 18 12 0 0 0 0 0 0 5 11 11 20 17 32 18-9 31-20 50-44-9-7-16-13-24-18-6-5-11-7-12-14-2-8 4-17 13-18 11-1 31 16 41 24 11-18 22-36 26-56-13-3-26-6-38-9-1 0-1 0-1 0-1 0-2-1-3-1 0 0 0 0 0 0-4-2-8-7-9-12-1-9 5-17 14-18 4-1 7 0 11 2 11 2 22 4 33 6 0 0 0 0 0 0 1-10 3-28 1-63-1-36 23-42 27 6 1 14 0 29-1 58z"/>
<glyph glyph-name="organiza" unicode="&#110;" d="M142 245l-20-1 1-20c0-26 0-47 0-64-17 7-30 22-32 40-2 24 13 43 26 55 8 7 18 15 28 23 37 30 72 59 73 89 2 34-21 63-52 67-25 3-58-10-69-60l40-9c4 19 13 29 24 28 8-1 17-10 16-24 0-12-39-44-58-59-11-9-21-17-30-25-27-25-41-57-39-88 4-39 34-71 73-80 0-4 0-6 0-6l0-3 0-3c0 0-1 0-1 0l-35 0 0-41 35 0c19 0 29 8 35 15 9 12 8 26 7 33 0 1 0 3 0 4 39 7 63 34 63 71 0 16-5 29-15 39-15 14-38 20-70 19z m22-86c0 12 0 27 0 44 12-2 17-5 19-7 1-1 3-3 3-9 0-17-11-25-22-28z m151 198c-43 0-42-41-42-41l162 0 0 41c0 0-77 0-120 0z m-79-113l199 0 0 41c0 0-122 0-162 0-40 0-37-41-37-41z m24-72l175 0 0 41c0 0-92 0-136 0-45 0-39-41-39-41z m-30-72l205 0 0 41c0 0-130 0-166 0-36 0-39-41-39-41z"/>
<glyph glyph-name="marcador" unicode="&#111;" d="M264 76l-15 0-5 5c-5 5-115 123-115 210 0 72 53 124 127 124 79 0 126-47 126-124 0-87-109-205-114-210z m-8 307c-56 0-95-38-95-92 0-60 68-144 95-175 27 31 94 115 94 175 0 59-33 92-94 92z m-1-144c-29 0-53 23-53 52 0 29 24 52 53 52 30 0 54-23 54-52 0-29-24-52-54-52z m0 72c-11 0-21-9-21-20 0-11 10-20 21-20 12 0 21 9 21 20 0 11-9 20-21 20z m9-235l-15 0-5 5c-5 5-115 123-115 210 0 72 53 124 127 124 79 0 126-47 126-124 0-87-109-205-114-210z m-8 307c-56 0-95-38-95-92 0-60 68-144 95-175 27 31 94 115 94 175 0 59-33 92-94 92z m-1-144c-29 0-53 23-53 52 0 29 24 52 53 52 30 0 54-23 54-52 0-29-24-52-54-52z m0 72c-11 0-21-9-21-20 0-11 10-20 21-20 12 0 21 9 21 20 0 11-9 20-21 20z"/>
<glyph glyph-name="revista" unicode="&#112;" d="M188 319l-42 32 0-80c-4 1-8 2-12 2-30 0-55-24-55-54 0-30 25-55 55-55 30 0 54 25 54 55 0 0 0 1 0 1z m-54-113c-7 0-13 6-13 13 0 7 6 12 13 12 7 0 12-5 12-12 0-7-5-13-12-13z m124 206l-190 19-51 5 0-347 241 16 236-17 0 348z m-199-22l177-17 0-227-177-13z m393-257l-174 13 0 226 174 18z m-140 214l0-41 107 7 0 42z m0-176l58 0 0 41-58 0z m0 109l0-42 107 2 0 42z"/>
<glyph glyph-name="porcentaje" unicode="&#113;" d="M69 26c-8 0-18 3-28 12-4 4-17 15-13 28 2 9 10 13 15 14l354 350-48 42 137 0 0-117-43 34-345-350c-4-5-15-13-29-13z m-22 35c0-1 2-4 7-9 16-14 28-2 30-1l0 1 358 362 25-19 0 57-66 0 25-21-374-368-2-1c-2 0-3-1-3-1z m103 197c-59 0-107 48-107 107 0 60 48 108 107 108 60 0 108-48 108-108 0-59-49-107-108-107z m0 195c-48 0-87-39-87-88 0-48 39-88 87-88 49 0 88 40 88 88 0 49-39 88-88 88z m0-146c-31 0-58 26-58 58 0 32 26 58 58 58 33 0 59-26 59-58 0-32-27-58-59-58z m0 97c-21 0-38-18-38-39 0-21 17-38 38-38 22 0 39 17 39 38 0 22-17 39-39 39z m229-378c-59 0-108 48-108 107 0 59 48 108 108 108 59 0 107-48 107-108 0-59-48-107-107-107z m0 195c-49 0-88-39-88-88 0-48 39-87 88-87 48 0 87 39 87 87 0 49-39 88-87 88z m0-146c-32 0-59 26-59 58 0 32 26 59 59 59 31 0 58-26 58-59 0-31-27-58-58-58z m0 97c-22 0-39-18-39-39 0-21 18-38 39-38 21 0 38 17 38 38 0 21-17 39-38 39z"/>
<glyph glyph-name="clasificados" unicode="&#114;" d="M66 101c21-15 36-13 57-10 86 10 158 15 245 27 22 3 44 6 67 10 15 2 29 17 29 35 0 73 0 147 0 220 0 1-1 1-2 2-123 0-247 0-372 0 0-14 0-29 0-43 0-64 0-129 0-194 0-11 2-43-9-42-12 1-13 6-15 17-4 22-8 45-11 68-10 71-15 135-25 205 0 2 0 3 0 6 122 12 207 21 329 33 1-16 1-16 2-33 36 0 83 1 121 1 0-6 0-11 0-16 0-54 0-108-1-162 0-20 1-40 1-60-1-32-16-50-48-54-93-14-292-30-315-33-34-5-44 5-53 23z m249 50c0 30 0 60 0 91 40 0 79 0 118 0 0-30 0-60 0-91-39 0-78 0-118 0z m-26 78c-53 0-105 0-158 0 0 4-1 8-1 14 13 0 24 0 36 0 37 0 75 0 112 0 10 0 14-3 11-14z m-157-78c-2 7-3 12 7 12 48 0 97 0 146 0 2 0 3-1 4-1 0-4 0-7 0-11-52 0-104 0-157 0z m0 41c0 4 0 7 0 11 2 0 3 1 5 1 48 0 95 0 143 0 8 0 11-3 9-12-52 0-104 0-157 0z m-7 141l309 0 0-38-309 0z"/>
<glyph glyph-name="comunitaria" unicode="&#115;" d="M441 165c4 8 9 21 9 30l0 29c0 31-32 56-64 56-8 0-17-4-24-8 1-5 6-16 6-21 8 6 15 5 24 5 24 0 37-11 37-35l0-29c0-22-17-30-35-38 2-2 14-15 16-17 10 4 9 2 16 10 47-23 45-50 46-65l-47 0c-8 40-37 72-78 81 5 11 9 23 9 35l0 46c0 31-17 58-41 75l-1 0c-15 10-33 16-51 16-1 0-1 0-1 0 0 0 0 0 0 0-19 0-37-6-52-16l2 0c-24-17-38-44-38-75l0-46c0-12 1-24 6-35-41-9-73-41-81-82l-62 1c1 15-1 42 46 65 7-8 6-6 16-10 2 2 16 15 18 17-18 8-32 16-32 38l0 29c0 24 10 35 34 35 9 0 14 1 21-5 1 5 6 16 7 21-8 4-14 8-23 8-31 0-61-25-61-56l0-29c0-9 3-22 7-30-36-17-58-39-60-84l1 0 0-21 86 0c0-5 0-17 0-18l0-16 330 0 0 16c0 1 0 13 0 18l75 0 0 21-4 0c-2 45-21 67-57 84z m-234 79c0 28 18 51 45 57 0 0-1 0-1 0 2 0 3 1 5 1 1 0 3 0 4 0 1 0 1 0 2 0 1 0 1 0 2 0 1 0 3 0 4 0 2 0 4-1 5-1 0 0 2 0 2 0 26-6 48-29 48-57l0-46c0-30-24-54-53-58-2 0-4 0-6 0 0 0-1 0-2 0 0 0-1 0-2 0-1 0-1 0-3 0-29 4-50 28-50 58z m189-184l-262 0c0 0 0 2 0 2 0 38 29 70 67 71 13-13 30-22 49-25l0 0c4-1 8-1 12-1 0 0 0 0 0 0 0 0 0 0 0 0 5 0 9 0 13 1l0 0c19 3 38 12 51 25 38-1 70-32 70-71 0 0 0-2 0-2z m-67 378l-3 32-37 16-22-48c-2 2-5 3-7 4-17 8-38 0-45-17-8-17 0-37 17-44 16-8 36-1 44 15l0 0c0 0 13 29 23 50z m-82-42c-8 0-15 6-15 15 0 8 7 15 15 15 8 0 15-7 15-15 0-9-7-15-15-15z"/>
<glyph glyph-name="alumnos" unicode="&#116;" d="M458 106c-2 48-23 70-61 88 4 8 10 21 10 31l0 30c0 33-34 58-67 58-9 0-18-4-26-8 1-5 7-17 7-22 8 6 13 5 23 5 25 0 36-12 36-36l0-30c0-24-16-32-34-41 2-2 16-15 18-17 11 4 10 2 17 10 49-24 48-52 48-68l-48 0c-8 42-41 76-83 85 4 12 7 24 7 37l0 48c0 32-17 61-42 78l1 1c-15 9-31 15-49 16-1 0-3 0-4 0 0 0-1 0-1 0 0 0 0 0 0 0 0 0 0 0-1 0 0 0 0 0-1 0-1 0-3 0-4 0-17-1-34-7-48-16l0-1c-25-17-41-46-41-78l0-48c0-13 2-25 7-37-49-11-85-54-85-106 0-1 0-20 0-21l0-17 345 0 1 17c0 1 0 13 0 18l75 0z m-309 170c0 32 25 59 58 61 0 0 0 0 0 0 1 0 2 0 3 0 0 0 1 0 2 0 0 0 0 0 1 0 32-2 58-29 58-61l0-48c0-33-26-59-58-61-1 0-1 0-2 0 0 0-1 0-1 0-1 0-1 0-2 0 0 0-1 0-2 0-32 2-57 28-57 61z m200-195l-278 0c0 2 0 4 0 4 0 40 32 73 72 75 14-14 33-24 53-27l0 0c1 0 3 0 4 0 0 0 0 0 0 0 2 0 3 0 4 0 2 0 3-1 4-1 1 0 1 0 1 0 1 0 1 0 1 0 0 0 0 0 0 0 0 0 1 0 1 0 1 0 3 1 4 1 1 0 3 0 4 0 0 0 0 0 0 0 1 0 3 0 4 0l0 0c21 3 39 13 53 27 40-2 73-35 73-75 0 0 0-2 0-4z m-259 275l0 0c0 0 13 30 23 52l32-8-3 34-39 17c0 0 0 0 0 0l0 0 0 0-23-51c-2 2-5 3-7 5-18 8-39 0-47-18-8-18 0-39 18-47 17-8 37-1 46 16z m-31 31c9 0 16-7 16-16 0-8-7-15-16-15-8 0-15 7-15 15 0 9 7 16 15 16z"/>
<glyph glyph-name="caracterizacion" unicode="&#117;" d="M473 189c0 17-5 32-17 42-16 16-40 22-75 21l-22-1 0-22c1-28 1-51 1-69-19 8-33 24-34 43-3 26 14 47 28 60 8 7 19 16 30 25 40 33 78 64 80 97 1 37-23 68-57 73-27 3-63-12-76-65l44-11c5 21 15 33 26 31 9-1 18-11 18-26-1-13-43-48-63-64-12-10-23-19-33-27-30-28-45-62-42-96 3-43 36-77 79-87-1-4-1-7-1-7l0-3c0 0 2-3-1-4l-23 0-22 0 0 0-232 0c0 2 0 4 0 4 0 50 40 91 89 92 21-20 50-33 82-33 6 0 11 0 17 1l-6 42c-3-1-7-1-11-1-41 0-75 34-75 76l0 59c0 42 34 75 75 75 14 0 26-3 37-9l30 31c-20 14-42 21-67 21-65 0-117-53-117-118l0-59c0-16 3-31 9-45-61-14-106-68-106-132 0-1 0-25 0-26l1-20 273 0 46-2c21 0 33 9 38 17 10 13 10 28 8 36 0 1 0 2 0 4 43 7 69 36 69 77z m-48 10c1-1 4-3 4-10 0-19-12-27-24-31 0 14 0 30-1 48 14-1 19-5 21-7z"/>
<glyph glyph-name="experiencia" unicode="&#118;" d="M381 200c-1-5-4-7-10-5-16 4-33 8-49 11-7 2-8 5-6 10 2 10 5 20 7 29 5 0 47-13 53-10 16-4 16-4 10-20 0 0 0 0 1-1-2-4-4-9-6-14z m-81-48c1 3 1 3 1 3 5 31 5 31 36 25 28-6 27-6 20-33-3-9-6-13-16-9-11 4-23 6-34 8-5 1-8 2-7 6z m163 133c-57 13-115 27-172 41-9 2-12 1-15-8-16-63-34-125-51-187-2-7-5-10-11-8-7 2-17-7-21 6-7 23-14 45-20 68-2 6-1 8 6 8 14 0 28 1 43 1 7 10 7 22 10 34 2 7-5 5-8 6-4 0-8 0-12 0-5 0-9 0-14-1-8 1-16-1-23 3-5 1-10 3-13 7-11 8-16 19-16 33 0 25-1 50 0 75 0 21 13 38 34 41 15 3 31 3 47 1 15-2 29-18 32-32 1-7 3-21 7-21l36 0c1 0 1 12 0 16-6 31-23 57-53 69-23 9-47 9-71 6-43-6-71-36-72-80-1-32-2-63 1-95 5-8 4-12-6-14-35-12-42-21-46-25-5-6-9-11-14-17-2-4-4-8-6-11-2-7-5-13-6-20-6-28-2-57-3-86-1-10 3-12 13-12 67 0 134 0 201 0 10 0 14 3 17 13 10 35 38 158 43 170 5 16 7 16 23 11 5-1 81-19 84-20 17-5 17-5 10-22-1-13-30-96-38-125-2-7-5-8-11-6-18 4-37 9-55 13-25 7-24 6-32-20-4-11 1-14 10-16 32-8 65-15 97-24 13-3 16 1 20 13 13 43 61 197 63 202 3 8 0 11-8 13z m-319-163c-11 1-25 0-34 0 0 0 0 0 0 0-18 0-24 0-36 0-3 0-8-1-8 5-1 25-3 50 15 71 7 10 18 14 28 18 9 4 18 2 21-11 6-25 14-49 21-74 2-7 0-9-7-9z"/>
<glyph glyph-name="representante" unicode="&#119;" d="M365 233c6 15 9 31 9 48l0 63c0 43-21 81-54 104l0 1c-21 14-45 21-71 21 0 0 0 0 0 0 0 0-1 0-1 0-25 0-50-7-71-21l1-1c-33-23-55-61-55-104l0-63c0-17 3-33 10-48-65-15-113-72-113-141 0-1 0-26 0-28l1-22 456 0 0 22c0 2 0 27 0 28 0 69-48 126-112 141z m-197 111c0 43 34 79 77 81 0 0 0 0 1 0 1 0 2 0 3 0 1 0 2 0 3 0 0 0 0 0 1 0 42-2 76-38 76-81l0-63c0-44-36-81-80-81-45 0-81 37-81 81l0 63z m119-199l-17-16-33-1-25 16 9 14c3 0 6-1 10-2l0 0c5-1 11-1 17-1 0 0 1 0 1 0 0 0 0 0 0 0 6 0 12 0 18 1l0 0c4 1 8 2 12 3z m-6-57l-57 0 7 15 43-1z m-216 4c0 54 43 97 96 99 11-11 24-20 39-26l-12-22 26-30-15-25-134 0c0 2 0 4 0 4z m367-4l-118 0-23 36 25 22-15 21c13 6 25 14 35 24 53-2 96-45 96-99 0 0 0-2 0-4z"/>
<glyph glyph-name="celular" unicode="&#120;" d="M247 38c-53 29-106 57-160 86-11 13-11 25-3 40 48 89 96 177 143 266 8 15 18 24 36 21 53-28 106-57 160-86 7-7 12-16 9-27-2-6-5-11-7-16-48-88-95-176-142-265-9-17-16-21-36-19z m-19 350c-36-67-72-134-107-200 54-29 108-58 162-87 35 67 71 133 107 200-54 29-108 58-162 87z m-52-291c9-5 19-2 24 6 5 9 2 20-7 25-8 4-19 1-24-7-5-9-1-20 7-24z"/>
</font>
</defs>
</svg>
